<?xml version="1.0" encoding="UTF-8" standalone="no"?>
<!-- Created with Inkscape (http://www.inkscape.org/) -->

<svg
   xmlns:dc="http://purl.org/dc/elements/1.1/"
   xmlns:cc="http://creativecommons.org/ns#"
   xmlns:rdf="http://www.w3.org/1999/02/22-rdf-syntax-ns#"
   xmlns:svg="http://www.w3.org/2000/svg"
   xmlns="http://www.w3.org/2000/svg"
   xmlns:sodipodi="http://sodipodi.sourceforge.net/DTD/sodipodi-0.dtd"
   xmlns:inkscape="http://www.inkscape.org/namespaces/inkscape"
   version="1.1"
   width="1005.4"
   height="1005.4"
   id="svg2"
   xml:space="preserve"
   inkscape:version="0.48.4 r9939"
   sodipodi:docname="AJAX1.svg"><sodipodi:namedview
     pagecolor="#ffffff"
     bordercolor="#666666"
     borderopacity="1"
     objecttolerance="10"
     gridtolerance="10"
     guidetolerance="10"
     inkscape:pageopacity="0"
     inkscape:pageshadow="2"
     inkscape:window-width="1280"
     inkscape:window-height="1004"
     id="namedview28"
     showgrid="false"
     fit-margin-top="2.7"
     fit-margin-left="2.7"
     fit-margin-right="2.7"
     fit-margin-bottom="2.7"
     inkscape:zoom="0.50515648"
     inkscape:cx="406.34114"
     inkscape:cy="444.85574"
     inkscape:window-x="-8"
     inkscape:window-y="-8"
     inkscape:window-maximized="1"
     inkscape:current-layer="svg2"
     showguides="true"
     inkscape:guide-bbox="true" /><metadata
     id="metadata8"><rdf:RDF><cc:Work
         rdf:about=""><dc:format>image/svg+xml</dc:format><dc:type
           rdf:resource="http://purl.org/dc/dcmitype/StillImage" /><dc:title /></cc:Work></rdf:RDF></metadata><defs
     id="defs6" /><path
     inkscape:connector-curvature="0"
     style="fill:#ffffff;fill-opacity:1;stroke:#ed1c23;stroke-opacity:1;stroke-width:5;stroke-miterlimit:4;stroke-dasharray:none"
     d="M 2.7,502.70001 C 2.7,226.55763 226.55764,2.7 502.7,2.7 c 276.14238,0 500,223.85763 500,500.00001 0,276.14237 -223.85762,499.99999 -500,499.99999 -276.14236,0 -500,-223.85762 -500,-499.99999 z"
     id="path3854" /><path
     id="path14622"
     d="M 968.075,502.70001 C 968.075,245.68049 759.71952,37.325 502.7,37.325 245.68048,37.325 37.325,245.68049 37.325,502.70001 37.325,759.71953 245.68048,968.075 502.7,968.075 c 257.01952,0 465.375,-208.35547 465.375,-465.37499 z"
     style="fill:#ed1c23;fill-opacity:1;stroke:none"
     inkscape:connector-curvature="0" /><path
     id="path15520"
     d="m 835.55,502.7 c 0,-183.82799 -149.02204,-332.85 -332.85,-332.85 -183.82797,0 -332.84999,149.02201 -332.84999,332.85 0,183.82797 149.02202,332.84999 332.84999,332.84999 183.82796,0 332.85,-149.02202 332.85,-332.84999 z"
     style="fill:#ffffff;fill-opacity:1;stroke:none"
     inkscape:connector-curvature="0" /><path
     inkscape:connector-curvature="0"
     d="m 568.9238,571.60987 -3.4227,-138.41703 c 0,-40.95203 29.53,-74.74043 65.8655,-74.74043 36.2956,0 65.8655,33.7884 65.8655,75.37719 0,0 3.4624,136.74553 3.542,137.82006 0,41.5092 -29.6097,75.2578 -65.9053,75.2578 -36.4151,0 -65.945,-33.7486 -65.945,-75.29759 M 519.1365,433.8296 522.599,572.24664 c 0,66.42266 50.3443,121.02536 112.2698,121.02536 61.8459,0 112.1902,-54.6027 112.1902,-121.66213 l -3.4624,-138.41703 c 0,-66.50227 -50.424,-121.06517 -112.23,-121.06517 -61.8857,0 -112.2301,54.5629 -112.2301,121.70193"
     style="fill:#0066b3;fill-opacity:1;fill-rule:nonzero;stroke:none"
     id="path4268" /><path
     inkscape:connector-curvature="0"
     d="m 264.1117,413.73166 c 0.6367,-29.53002 9.7505,-53.44855 27.4207,-71.75557 19.1429,-19.89894 44.494,-29.84842 76.1334,-29.84842 28.3759,0 51.0606,8.67595 68.0543,26.10742 17.3122,17.23248 25.9483,40.51424 25.9483,69.80548 0,38.84273 -14.0885,66.26348 -42.2256,82.30202 32.117,17.39168 48.1157,47.47888 48.1157,90.38099 0,35.8579 -8.9943,63.55722 -26.983,83.13779 -17.9885,19.06318 -43.5388,28.53507 -76.7303,28.53507 -34.7833,0 -61.4878,-12.09855 -79.9937,-36.25587 C 266.818,633.73437 258.341,602.8114 258.341,563.4513 l 51.8965,0 c 0,25.27165 4.6166,44.93181 13.9292,59.02026 9.1932,14.48643 22.4062,21.65005 39.6785,21.65005 15.9191,0 28.4157,-5.25332 37.2508,-15.87936 9.7107,-11.223 14.4864,-27.06255 14.4864,-47.51867 0,-21.76943 -4.7757,-37.96718 -14.4864,-48.51361 -9.5117,-11.22301 -23.8787,-16.83451 -42.9817,-16.83451 l -26.7441,0 0,-48.15544 26.7441,0 c 16.2375,0 28.6943,-4.81554 37.3305,-14.28744 9.5515,-10.22805 14.2476,-25.15225 14.2476,-44.89201 0,-13.0537 -3.94,-23.99812 -11.8996,-32.87305 -8.3177,-9.90967 -18.9836,-14.80481 -31.9975,-14.80481 -15.4018,0 -27.3014,4.89514 -35.8976,14.80481 -8.3179,9.19331 -12.8946,22.04803 -13.8895,38.56414 l -51.8965,0"
     style="fill:#0066b3;fill-opacity:1;fill-rule:nonzero;stroke:none"
     id="path4272" /></svg>